<svg id="Warstwa_1" data-name="Warstwa 1" xmlns="http://www.w3.org/2000/svg" viewBox="0 0 227.68 227.68"><defs><style>.cls-1{fill:#fff;}</style></defs><path class="cls-1" d="M226.82,44.15V183.53c-.92,2.85-1.79,5.72-3.66,8.14A20,20,0,0,1,206.48,200q-92.61,0-185.21,0c-.44,0-.89,0-1.33,0a18.73,18.73,0,0,1-11.18-4.06A19.8,19.8,0,0,1,.87,179.44q0-65.59,0-131.19c0-.52,0-1,0-1.55A18.62,18.62,0,0,1,4.76,35.89a19.67,19.67,0,0,1,16.5-8.17q58.22,0,116.42,0h69a19.78,19.78,0,0,1,15.92,7.58C224.78,37.91,225.81,41,226.82,44.15ZM24.07,41.25l89.83,89,89.07-89Zm.6,145.15H203l-62.76-62.77a17.34,17.34,0,0,1-1.36,1.7c-6.28,6.3-12.68,12.48-18.82,18.91-3.51,3.67-8.1,3.53-11.52,0-6.39-6.6-13-13-19.54-19.44-.55-.54-1.14-1-1.44-1.32ZM14.42,50.83V176.1l62.91-62.9Zm136.86,62.91,62.11,62.1V51.64Z"/></svg>