<?xml version="1.0" encoding="utf-8"?>
<!-- Generator: Adobe Illustrator 26.1.0, SVG Export Plug-In . SVG Version: 6.00 Build 0)  -->
<svg version="1.1" id="Warstwa_1" xmlns="http://www.w3.org/2000/svg" xmlns:xlink="http://www.w3.org/1999/xlink" x="0px" y="0px"
	 viewBox="0 0 595.3 841.9" style="enable-background:new 0 0 595.3 841.9;" xml:space="preserve">
<style type="text/css">
	.st0{fill-rule:evenodd;clip-rule:evenodd;fill:#FFFFFF;}
	.st1{fill-rule:evenodd;clip-rule:evenodd;fill:#E30613;}
</style>
<path class="st0" d="M326.6,468.1v8.9H204.3L170,464.5v-84.2l116.4-92.9h8.1l32.1,11.7v43.3l150.6,102.4v23.3H326.6z M322.4,463.9
	v8.9H205.1l-30.8-11.2v-79.2L288,291.7h5.8l28.6,10.4v42.6L473,447.1v16.8H322.4z M306.4,348v52.5h-4.3v-60.5l149.9,101.9v13.7
	H302.2v-12h4.3v7.8h141.4v-7.2L306.4,348z M182.8,455.5h106v-11.9h4.3v16.2H178.6v-76.6l110-87.9h4.5v105.2h-4.3v-100l-106,84.7
	V455.5z"/>
<path class="st1" d="M213.6,401.2v-15.4H224v1.8h-8.4v4.8h7.2v1.8h-7.2v7H213.6z M223.5,399h2.2v2.2h-2.2V399z M228.8,401.2v-15.4h2
	v6.3h8v-6.3h2v15.4h-2v-7.3h-8v7.3H228.8z M244.6,399h2.2v2.2h-2.2V399z M250.3,401.2v-15.4h5.8c1,0,1.8,0,2.3,0.1
	c0.8,0.1,1.4,0.4,1.9,0.7c0.5,0.4,0.9,0.9,1.2,1.5c0.3,0.6,0.5,1.3,0.5,2.1c0,1.3-0.4,2.4-1.3,3.3c-0.8,0.9-2.3,1.4-4.5,1.4h-4v6.3
	H250.3z M252.3,393.1h4c1.3,0,2.3-0.2,2.8-0.7c0.6-0.5,0.8-1.2,0.8-2.1c0-0.6-0.2-1.2-0.5-1.7c-0.3-0.5-0.8-0.8-1.3-0.9
	c-0.3-0.1-1-0.1-1.9-0.1h-3.9V393.1z M259.1,399h2.2v2.2h-2.2V399z M213.6,435.9v-29.1h10.8l6.5,19.8l6.4-19.8H248v29.1h-6.7V413
	l-7.1,22.9h-6.9l-7.1-22.9v22.9H213.6z M255.2,435.9v-29.1h26.4v4.9h-19.2v6.4h17.9v4.9h-17.9v7.9h19.9v4.9H255.2z M288.4,406.9
	h14.2c2.8,0,4.9,0.1,6.3,0.3c1.4,0.2,2.6,0.6,3.7,1.2c1.1,0.6,2,1.4,2.7,2.4c0.7,1,1.1,2.1,1.1,3.4c0,1.4-0.4,2.6-1.3,3.8
	c-0.9,1.1-2.1,2-3.7,2.6c2.2,0.5,3.8,1.4,5,2.6c1.2,1.2,1.8,2.7,1.8,4.4c0,1.3-0.4,2.6-1.1,3.9c-0.8,1.2-1.8,2.2-3.1,3
	c-1.3,0.7-2.9,1.2-4.8,1.4c-1.2,0.1-4.1,0.2-8.7,0.2h-12.1V406.9z M295.6,411.7v6.7h4.7c2.8,0,4.5,0,5.2-0.1c1.2-0.1,2.2-0.5,2.9-1
	c0.7-0.6,1-1.3,1-2.3c0-0.9-0.3-1.6-0.9-2.2c-0.6-0.6-1.5-0.9-2.7-1c-0.7-0.1-2.8-0.1-6.1-0.1H295.6z M295.6,423.3v7.8h6.7
	c2.6,0,4.2-0.1,4.9-0.2c1.1-0.2,1.9-0.5,2.6-1.2c0.7-0.6,1-1.4,1-2.5c0-0.9-0.3-1.6-0.8-2.2c-0.5-0.6-1.3-1.1-2.2-1.3
	c-1-0.3-3.1-0.4-6.4-0.4H295.6z M324.3,435.9v-29.1h26.4v4.9h-19.2v6.4h17.9v4.9h-17.9v7.9h19.9v4.9H324.3z M357.7,435.9v-28.8h7.2
	V431h17.9v4.9H357.7z"/>
</svg>
