<?xml version="1.0" encoding="utf-8"?>
<!-- Generator: Adobe Illustrator 26.0.0, SVG Export Plug-In . SVG Version: 6.00 Build 0)  -->
<svg version="1.1" id="Warstwa_1" xmlns="http://www.w3.org/2000/svg" xmlns:xlink="http://www.w3.org/1999/xlink" x="0px" y="0px"
	 viewBox="0 0 307.2 189.6" style="enable-background:new 0 0 307.2 189.6;" xml:space="preserve">
<style type="text/css">
	.st0{fill-rule:evenodd;clip-rule:evenodd;fill:#FFFFFF;}
	.st1{fill-rule:evenodd;clip-rule:evenodd;fill:#E30613;}
</style>
<g>
	<path class="st0" d="M156.6,180.7v8.9H34.3L0,177.1V92.9L116.4,0h8.1l32.1,11.7V55l150.6,102.4v23.3L156.6,180.7L156.6,180.7z
		 M152.4,176.5v8.9H35.1L4.3,174.2V95L118,4.3h5.8l28.6,10.4v42.6L303,159.7v16.8H152.4z M136.4,60.6v52.5h-4.3V52.6L282,154.5v13.7
		H132.2v-12h4.3v7.8h141.4v-7.2L136.4,60.6z M12.8,168.1h106v-11.9h4.3v16.2H8.6V95.8l110-87.9h4.5v105.2h-4.3v-100l-106,84.7
		L12.8,168.1L12.8,168.1z"/>
	<path class="st1" d="M43.6,113.8V98.4H54v1.8h-8.4v4.8h7.2v1.8h-7.2v7L43.6,113.8L43.6,113.8z M53.5,111.6h2.2v2.2h-2.2V111.6z
		 M58.8,113.8V98.4h2v6.3h8v-6.3h2v15.4h-2v-7.3h-8v7.3H58.8z M74.6,111.6h2.2v2.2h-2.2V111.6z M80.3,113.8V98.4h5.8
		c1,0,1.8,0,2.3,0.1c0.8,0.1,1.4,0.4,1.9,0.7c0.5,0.4,0.9,0.9,1.2,1.5c0.3,0.6,0.5,1.3,0.5,2.1c0,1.3-0.4,2.4-1.3,3.3
		c-0.8,0.9-2.3,1.4-4.5,1.4h-4v6.3H80.3z M82.3,105.7h4c1.3,0,2.3-0.2,2.8-0.7c0.6-0.5,0.8-1.2,0.8-2.1c0-0.6-0.2-1.2-0.5-1.7
		s-0.8-0.8-1.3-0.9c-0.3-0.1-1-0.1-1.9-0.1h-3.9L82.3,105.7L82.3,105.7z M89.1,111.6h2.2v2.2h-2.2V111.6z M43.6,148.5v-29.1h10.8
		l6.5,19.8l6.4-19.8H78v29.1h-6.7v-22.9l-7.1,22.9h-6.9l-7.1-22.9v22.9H43.6z M85.2,148.5v-29.1h26.4v4.9H92.4v6.4h17.9v4.9H92.4
		v7.9h19.9v4.9H85.2V148.5z M118.4,119.5h14.2c2.8,0,4.9,0.1,6.3,0.3c1.4,0.2,2.6,0.6,3.7,1.2s2,1.4,2.7,2.4s1.1,2.1,1.1,3.4
		c0,1.4-0.4,2.6-1.3,3.8c-0.9,1.1-2.1,2-3.7,2.6c2.2,0.5,3.8,1.4,5,2.6s1.8,2.7,1.8,4.4c0,1.3-0.4,2.6-1.1,3.9
		c-0.8,1.2-1.8,2.2-3.1,3c-1.3,0.7-2.9,1.2-4.8,1.4c-1.2,0.1-4.1,0.2-8.7,0.2h-12.1V119.5z M125.6,124.3v6.7h4.7
		c2.8,0,4.5,0,5.2-0.1c1.2-0.1,2.2-0.5,2.9-1c0.7-0.6,1-1.3,1-2.3c0-0.9-0.3-1.6-0.9-2.2s-1.5-0.9-2.7-1c-0.7-0.1-2.8-0.1-6.1-0.1
		H125.6z M125.6,135.9v7.8h6.7c2.6,0,4.2-0.1,4.9-0.2c1.1-0.2,1.9-0.5,2.6-1.2c0.7-0.6,1-1.4,1-2.5c0-0.9-0.3-1.6-0.8-2.2
		s-1.3-1.1-2.2-1.3c-1-0.3-3.1-0.4-6.4-0.4L125.6,135.9L125.6,135.9z M154.3,148.5v-29.1h26.4v4.9h-19.2v6.4h17.9v4.9h-17.9v7.9
		h19.9v4.9h-27.1V148.5z M187.7,148.5v-28.8h7.2v23.9h17.9v4.9H187.7z"/>
</g>
</svg>
