<?xml version="1.0" encoding="utf-8"?>
<!-- Generator: Adobe Illustrator 21.0.2, SVG Export Plug-In . SVG Version: 6.00 Build 0)  -->
<svg version="1.1" id="Layer_1" xmlns="http://www.w3.org/2000/svg" xmlns:xlink="http://www.w3.org/1999/xlink" x="0px" y="0px"
	 viewBox="0 0 480 480" style="enable-background:new 0 0 480 480;" xml:space="preserve">
<style type="text/css">
	.st0{fill:#E02B20;}
</style>
<path class="st0" d="M472,96H328c-4.4,0-8,3.6-8,8v184H144v-24c0-4.4-3.6-8-8-8h-24v16h16v16H96v-32H80v32H48v-16h16v-16H40
	c-4.4,0-8,3.6-8,8v24H8c-4.4,0-8,3.6-8,8v176c0,4.4,3.6,8,8,8h464c4.4,0,8-3.6,8-8V104C480,99.6,476.4,96,472,96z M336,112h128v96
	H336V112z M320,336H176v-32h144V336z M16,304h144v32H16V304z M16,352h144v112H16V352z M176,352h64v112h-64V352z M256,352h64v112h-64
	V352z M336,464V224h128v240H336z"/>
<path class="st0" d="M352,144h16v32h-16V144z"/>
<path class="st0" d="M352,256h16v32h-16V256z"/>
<path class="st0" d="M48,320c0,4.4-3.6,8-8,8s-8-3.6-8-8s3.6-8,8-8S48,315.6,48,320z"/>
<path class="st0" d="M80,320c0,4.4-3.6,8-8,8s-8-3.6-8-8s3.6-8,8-8S80,315.6,80,320z"/>
<path class="st0" d="M112,320c0,4.4-3.6,8-8,8s-8-3.6-8-8s3.6-8,8-8S112,315.6,112,320z"/>
<path class="st0" d="M144,320c0,4.4-3.6,8-8,8s-8-3.6-8-8s3.6-8,8-8S144,315.6,144,320z"/>
<path class="st0" d="M8,152h160c4.4,0,8-3.6,8-8v-24c0-2.1-0.8-4.2-2.3-5.7l-32-32c-1.5-1.5-3.5-2.3-5.7-2.3h-8V8c0-4.4-3.6-8-8-8
	H56c-4.4,0-8,3.6-8,8v72h-8c-2.1,0-4.2,0.8-5.7,2.3l-32,32C0.8,115.8,0,117.9,0,120v24C0,148.4,3.6,152,8,152z M64,16h48v64H64V16z
	 M16,123.3L43.3,96h89.4l27.3,27.3V136H16V123.3z"/>
<path class="st0" d="M136,368H40c-4.4,0-8,3.6-8,8v64c0,4.4,3.6,8,8,8h96c4.4,0,8-3.6,8-8v-64C144,371.6,140.4,368,136,368z
	 M128,432H48v-48h80V432z"/>
<path class="st0" d="M232,312h32v16h-32V312z"/>
<path class="st0" d="M208,392h16v32h-16V392z"/>
<path class="st0" d="M272,392h16v32h-16V392z"/>
<path class="st0" d="M192,200h48c4.4,0,8-3.6,8-8v-8c-0.1-14.5-9.9-27.2-24-30.9V0h-16v153.1c-14.1,3.6-23.9,16.3-24,30.9v8
	C184,196.4,187.6,200,192,200z M216,168c8.8,0,16,7.2,16,16h-32C200,175.2,207.2,168,216,168z"/>
<path class="st0" d="M248,136h48c4.4,0,8-3.6,8-8v-8c-0.1-14.5-9.9-27.2-24-30.9V0h-16v89.1c-14.1,3.6-23.9,16.3-24,30.9v8
	C240,132.4,243.6,136,248,136z M272,104c8.8,0,16,7.2,16,16h-32C256,111.2,263.2,104,272,104z"/>
</svg>
