<?xml version="1.0" encoding="UTF-8"?><svg id="a" xmlns="http://www.w3.org/2000/svg" viewBox="0 0 283.48 283.46"><defs><style>.b{fill:#fff;}</style></defs><path class="b" d="M78.01,0c5.35,1.54,10.97,2.49,16.02,4.72,20.65,9.13,33.43,25.4,39.49,46.71,7.95,27.92,3.63,53.8-15.27,76.47-3.57,4.28-8.1,7.75-12.21,11.57-.63,.59-1.35,1.09-2.58,2.07,5.82,0,10.94,0,16.07,0,5.72,0,11.43-.03,17.15,.01,2.96,.02,4.86,1.68,5.03,4.38,.98,15.47-3.5,28.94-14.93,39.69-7.9,7.43-17.29,11.72-28.17,12.57-1,.08-2,.27-3.32,.45,.42,4.09,.8,8.08,1.24,12.06,1.22,11.06,2.46,22.12,3.7,33.18,1.21,10.78,2.32,21.58,3.73,32.34,.55,4.23-1.46,7.29-6.15,7.23-18.07-.21-36.14-.08-54.21-.09-4.56,0-6.45-2.3-5.93-6.83,1.5-12.97,2.89-25.96,4.36-38.93,1.4-12.43,2.85-24.85,4.26-37.28,.05-.44,0-.9,0-1.65-2.45-.34-4.89-.58-7.29-1.02C18.88,193.95,3.94,178.8,.44,158.64c-.06-.33-.29-.63-.44-.95v-13.28c1.43-2.23,3.43-2.98,6.08-2.92,6.45,.15,12.91,.05,19.36,.05,4.01,0,8.03,0,12.73,0-1.24-.98-1.98-1.47-2.6-2.08-4.98-4.9-10.67-9.27-14.77-14.82C1.58,98.65-.44,70.37,11.95,41.11,19.88,22.39,33.57,9.03,53.27,2.58c3.37-1.1,6.9-1.73,10.36-2.58h14.39Zm-26.21,137.45c0-1.59,0-2.59,0-3.58,.02-5.62-.07-11.25,.1-16.87,.19-6.18,4.94-11.89,10.95-12.91,2.96-.5,6.08-.52,9.08-.26,7.07,.63,11.75,5.11,13.11,12.11,.67,3.45-.94,6.33-3.85,6.9-2.99,.58-5.4-1.36-5.92-5.04-.37-2.6-1.77-4.22-4.26-4.21-3.21,.01-7.04-1.41-9.03,2.76-.2,.41-.41,.87-.41,1.31-.02,7.54-.02,15.08-.02,22.65,5.85,1.5,11.52,1.45,17.18,.45,14.32-2.51,25.6-10.03,34.21-21.52,11.58-15.45,15.76-32.96,13.77-52.06-1.57-15-7.08-28.33-17.22-39.54-10.59-11.71-23.78-18.29-39.73-17.96-15.28,.31-27.94,6.9-37.91,18.3-14.01,16.02-19.06,34.92-16.95,55.89,1.52,15.01,7.15,28.27,17.24,39.54,5.34,5.96,11.64,10.63,19.65,14.04ZM15.13,170.17c.64,1.16,.92,1.82,1.34,2.39,7.42,10.17,17.39,15.81,30.01,15.99,16.03,.23,32.08,.09,48.11,.05,15.11-.04,28.59-9.07,34.45-22.99,1.9-4.52,2.87-9.21,2.87-14.25H9.49l1.22,9c1.29,0,2.28,0,3.28,0,6.27,0,12.54-.04,18.8,.02,3.03,.03,5,1.92,5.09,4.68,.09,2.77-1.73,4.86-4.75,4.99-4.33,.18-8.66,.09-12.99,.12-1.52,0-3.04,0-5.01,0Zm78.25,103.45c0-1.19,.08-2.11-.01-3.01-.73-6.76-1.49-13.52-2.24-20.29-1.82-16.35-3.67-32.7-5.44-49.06-.2-1.87-.75-2.73-2.85-2.7-8.02,.11-16.03,.11-24.05,0-2.11-.03-2.68,.86-2.83,2.72-.33,4.12-.76,8.24-1.23,12.35-1.96,17.36-3.96,34.71-5.91,52.07-.29,2.59-.44,5.2-.66,7.92h45.22Z"/><path class="b" d="M276.64,0c4.94,2.21,6.83,5.95,6.81,11.4-.14,36.69-.19,73.39,.03,110.08,.04,6.6-4.82,10.99-10.94,10.95-33.74-.21-67.48-.1-101.23-.1-7.35,0-10.95-3.64-10.95-11.07,0-36.51,.07-73.02-.08-109.53-.02-5.53,1.79-9.41,6.81-11.73h109.55Zm-3.11,93.92V9.78h-46.39V93.92h46.39ZM216.71,9.69c-1.1-.05-2.01-.13-2.91-.13-13.46,0-26.92,.06-40.39-.06-2.54-.02-3.3,.67-3.29,3.22,.08,26,.08,52,0,78.01,0,2.6,.64,3.5,3.37,3.47,13.46-.13,26.92-.06,40.39-.07,.89,0,1.79-.11,2.84-.18V9.69Zm56.89,94.6h-103.43c0,5.15,.1,10.11-.04,15.07-.07,2.45,.56,3.34,3.22,3.33,32.45-.09,64.9-.06,97.35-.07,.97,0,1.93-.12,2.91-.18v-18.14Z"/><path class="b" d="M170.36,175.1c-.51,3.86,.72,9.27-5.36,9.06-5.63-.19-4.46-5.23-4.74-9.08-3.83-.51-9.22,.93-9.18-5.18,.04-5.88,5.24-4.65,9.29-5.14,0-1.56-.07-3.01,.02-4.45,.17-2.69,2.3-4.73,4.84-4.74,2.43,0,4.44,1.86,4.81,4.47q.69,4.93,5.81,4.91c.99,0,1.98,0,3.16,0,.14-2.48,.03-4.7,.43-6.83,1.36-7.19,7-11.97,14.44-12.02,15.49-.11,30.98-.12,46.47,0,8.77,.06,14.75,6.37,14.79,15.2,0,1.08,0,2.17,0,3.45h9.12c0-1.25-.03-2.42,0-3.58,.1-3.36,2.04-5.59,4.84-5.58,2.83,0,4.8,2.26,4.85,5.56,.02,1.1,0,2.19,0,3.61,1.49,.08,2.82,.12,4.16,.23,3.4,.29,5.34,2.21,5.25,5.18-.09,2.89-2.2,4.68-5.64,4.74-1.1,.02-2.21,0-3.77,0,0,1.37,.02,2.62,0,3.86-.05,3.36-1.95,5.53-4.84,5.54-2.91,.01-4.75-2.06-4.85-5.52-.04-1.18,0-2.35,0-3.71h-9.12v3.25c0,15.68,0,31.35,0,47.03,0,7.05-3.89,10.92-10.94,10.95-2.48,0-4.96,0-7.89,0,0,1.24,0,2.3,0,3.36-.05,6.71-3.8,10.62-10.59,10.79-5.07,.12-10.14,.03-15.21,.03-6.73,0-13.46,.05-20.19-.02-7.45-.07-11.13-3.86-11.13-11.34,0-20.29,0-40.57,0-60.86,0-1,0-1.99,0-3.18h-8.83Zm56.04-19.03c-10.18,0-20.5,0-30.81,0-5.36,0-6.44,1.08-6.44,6.47,0,24.88,0,49.76,0,74.64,0,1.07,.11,2.13,.17,3.25h37.08v-84.36Zm10.03,70.25c2.04,0,3.79-.16,5.51,.04,2.73,.32,3.39-.78,3.37-3.4-.12-14.93-.05-29.86-.06-44.78,0-.99-.1-1.97-.16-3.04h-8.65v51.19Zm-.09-61.37c2,0,3.71,0,5.42,0q3.62-.01,3.47-3.7c-.02-.46-.04-.92-.11-1.37-.38-2.43-1.86-3.69-4.28-3.78-2.37-.09-4.26,1.53-4.48,3.9-.13,1.45-.02,2.92-.02,4.95Z"/><path class="b" d="M33.7,85.27c-4.55-.13-6.8-4.31-4.85-7.5,.47-.77,1.17-1.42,1.81-2.06,16.6-16.61,33.21-33.22,49.82-49.82,.52-.52,1.02-1.07,1.61-1.51,2.04-1.49,4.54-1.32,6.29,.37,1.69,1.62,1.97,4.28,.64,6.31-.3,.46-.68,.87-1.07,1.26-16.99,17-33.98,34.01-51.02,50.96-1.04,1.04-2.56,1.59-3.24,1.99Z"/><path class="b" d="M61.42,29.39c-.26,.44-.74,1.78-1.64,2.7-5.99,6.12-12.05,12.18-18.15,18.19-2.39,2.36-5.32,2.42-7.35,.36-2-2.02-1.85-4.98,.5-7.35,6.03-6.09,12.1-12.13,18.17-18.18,1.64-1.64,3.58-2.34,5.76-1.28,1.87,.91,2.98,2.43,2.71,5.55Z"/><path class="b" d="M54.39,160.36c.46,0,.92,0,1.38,0,3.61,.04,5.72,1.82,5.73,4.84,.02,2.97-1.89,4.74-5.4,4.91-1.46,.07-2.94,.07-4.39-.06-2.88-.26-4.87-2.45-4.71-5.06,.15-2.52,2.21-4.47,4.92-4.62,.82-.05,1.65,0,2.47-.01Z"/><path class="b" d="M238.43,46.81c1.35,.19,2.76,.2,4.03,.62,2.15,.7,3.27,2.39,3.21,4.62-.06,2.22-1.21,4.03-3.43,4.43-2.22,.4-4.57,.5-6.81,.24-2.83-.33-4.44-2.57-4.24-5.18,.19-2.52,2.21-4.37,5-4.56,.73-.05,1.47,0,2.2,0l.02-.17Z"/><path class="b" d="M205.46,47.03c4.96-.06,7.24,1.61,7.08,5.14-.02,.54-.09,1.12-.31,1.6-1.66,3.63-4.97,3.2-8.07,3.18-2.67-.02-4.89-.81-5.81-3.65-.91-2.79,.99-5.77,4.1-6.25,.99-.15,2.01-.02,3.02-.02Z"/></svg>