<?xml version="1.0" encoding="utf-8"?>
<!-- Generator: Adobe Illustrator 26.2.1, SVG Export Plug-In . SVG Version: 6.00 Build 0)  -->
<svg version="1.1" id="a" xmlns="http://www.w3.org/2000/svg" xmlns:xlink="http://www.w3.org/1999/xlink" x="0px" y="0px"
	 viewBox="0 0 283.5 283.5" style="enable-background:new 0 0 283.5 283.5;" xml:space="preserve">
<style type="text/css">
	.st0{fill:#BB000E;}
</style>
<path class="st0" d="M78,0c5.3,1.5,11,2.5,16,4.7c20.7,9.1,33.4,25.4,39.5,46.7c7.9,27.9,3.6,53.8-15.3,76.5
	c-3.6,4.3-8.1,7.7-12.2,11.6c-0.6,0.6-1.3,1.1-2.6,2.1c5.8,0,10.9,0,16.1,0c5.7,0,11.4,0,17.1,0c3,0,4.9,1.7,5,4.4
	c1,15.5-3.5,28.9-14.9,39.7c-7.9,7.4-17.3,11.7-28.2,12.6c-1,0.1-2,0.3-3.3,0.4c0.4,4.1,0.8,8.1,1.2,12.1
	c1.2,11.1,2.5,22.1,3.7,33.2c1.2,10.8,2.3,21.6,3.7,32.3c0.6,4.2-1.5,7.3-6.2,7.2c-18.1-0.2-36.1-0.1-54.2-0.1
	c-4.6,0-6.5-2.3-5.9-6.8c1.5-13,2.9-26,4.4-38.9c1.4-12.4,2.8-24.9,4.3-37.3c0-0.4,0-0.9,0-1.6c-2.5-0.3-4.9-0.6-7.3-1
	c-20.1-3.7-35.1-18.9-38.6-39c-0.1-0.3-0.3-0.6-0.4-0.9v-13.3c1.4-2.2,3.4-3,6.1-2.9c6.4,0.1,12.9,0.1,19.4,0.1c4,0,8,0,12.7,0
	c-1.2-1-2-1.5-2.6-2.1c-5-4.9-10.7-9.3-14.8-14.8c-19.2-26-21.2-54.3-8.8-83.5C19.9,22.4,33.6,9,53.3,2.6c3.4-1.1,6.9-1.7,10.4-2.6
	H78L78,0z M51.8,137.4c0-1.6,0-2.6,0-3.6c0-5.6-0.1-11.2,0.1-16.9c0.2-6.2,4.9-11.9,11-12.9c3-0.5,6.1-0.5,9.1-0.3
	c7.1,0.6,11.8,5.1,13.1,12.1c0.7,3.4-0.9,6.3-3.8,6.9c-3,0.6-5.4-1.4-5.9-5c-0.4-2.6-1.8-4.2-4.3-4.2c-3.2,0-7-1.4-9,2.8
	c-0.2,0.4-0.4,0.9-0.4,1.3c0,7.5,0,15.1,0,22.7c5.8,1.5,11.5,1.4,17.2,0.4c14.3-2.5,25.6-10,34.2-21.5c11.6-15.4,15.8-33,13.8-52.1
	c-1.6-15-7.1-28.3-17.2-39.5C98.9,15.9,85.7,9.3,69.8,9.7C54.5,10,41.8,16.6,31.9,28c-14,16-19.1,34.9-17,55.9
	c1.5,15,7.1,28.3,17.2,39.5C37.5,129.4,43.8,134,51.8,137.4L51.8,137.4z M15.1,170.2c0.6,1.2,0.9,1.8,1.3,2.4
	c7.4,10.2,17.4,15.8,30,16c16,0.2,32.1,0.1,48.1,0.1c15.1,0,28.6-9.1,34.4-23c1.9-4.5,2.9-9.2,2.9-14.2H9.5l1.2,9c1.3,0,2.3,0,3.3,0
	c6.3,0,12.5,0,18.8,0c3,0,5,1.9,5.1,4.7c0.1,2.8-1.7,4.9-4.8,5c-4.3,0.2-8.7,0.1-13,0.1C18.6,170.2,17.1,170.2,15.1,170.2z
	 M93.4,273.6c0-1.2,0.1-2.1,0-3c-0.7-6.8-1.5-13.5-2.2-20.3c-1.8-16.4-3.7-32.7-5.4-49.1c-0.2-1.9-0.8-2.7-2.8-2.7
	c-8,0.1-16,0.1-24,0c-2.1,0-2.7,0.9-2.8,2.7c-0.3,4.1-0.8,8.2-1.2,12.4c-2,17.4-4,34.7-5.9,52.1c-0.3,2.6-0.4,5.2-0.7,7.9
	C48.2,273.6,93.4,273.6,93.4,273.6z"/>
<path class="st0" d="M276.6,0c4.9,2.2,6.8,5.9,6.8,11.4c-0.1,36.7-0.2,73.4,0,110.1c0,6.6-4.8,11-10.9,11
	c-33.7-0.2-67.5-0.1-101.2-0.1c-7.4,0-10.9-3.6-10.9-11.1c0-36.5,0.1-73-0.1-109.5c0-5.5,1.8-9.4,6.8-11.7C167.1,0,276.6,0,276.6,0z
	 M273.5,93.9V9.8h-46.4v84.1H273.5z M216.7,9.7c-1.1-0.1-2-0.1-2.9-0.1c-13.5,0-26.9,0.1-40.4-0.1c-2.5,0-3.3,0.7-3.3,3.2
	c0.1,26,0.1,52,0,78c0,2.6,0.6,3.5,3.4,3.5c13.5-0.1,26.9-0.1,40.4-0.1c0.9,0,1.8-0.1,2.8-0.2L216.7,9.7L216.7,9.7z M273.6,104.3
	H170.2c0,5.2,0.1,10.1,0,15.1c-0.1,2.4,0.6,3.3,3.2,3.3c32.4-0.1,64.9-0.1,97.3-0.1c1,0,1.9-0.1,2.9-0.2L273.6,104.3L273.6,104.3z"
	/>
<path class="st0" d="M170.4,175.1c-0.5,3.9,0.7,9.3-5.4,9.1c-5.6-0.2-4.5-5.2-4.7-9.1c-3.8-0.5-9.2,0.9-9.2-5.2
	c0-5.9,5.2-4.6,9.3-5.1c0-1.6-0.1-3,0-4.4c0.2-2.7,2.3-4.7,4.8-4.7c2.4,0,4.4,1.9,4.8,4.5c0.5,3.3,2.4,4.9,5.8,4.9c1,0,2,0,3.2,0
	c0.1-2.5,0-4.7,0.4-6.8c1.4-7.2,7-12,14.4-12c15.5-0.1,31-0.1,46.5,0c8.8,0.1,14.8,6.4,14.8,15.2c0,1.1,0,2.2,0,3.4h9.1
	c0-1.2,0-2.4,0-3.6c0.1-3.4,2-5.6,4.8-5.6c2.8,0,4.8,2.3,4.9,5.6c0,1.1,0,2.2,0,3.6c1.5,0.1,2.8,0.1,4.2,0.2
	c3.4,0.3,5.3,2.2,5.2,5.2c-0.1,2.9-2.2,4.7-5.6,4.7c-1.1,0-2.2,0-3.8,0c0,1.4,0,2.6,0,3.9c0,3.4-2,5.5-4.8,5.5
	c-2.9,0-4.8-2.1-4.9-5.5c0-1.2,0-2.4,0-3.7h-9.1v3.2c0,15.7,0,31.4,0,47c0,7.1-3.9,10.9-10.9,10.9c-2.5,0-5,0-7.9,0
	c0,1.2,0,2.3,0,3.4c-0.1,6.7-3.8,10.6-10.6,10.8c-5.1,0.1-10.1,0-15.2,0c-6.7,0-13.5,0.1-20.2,0c-7.4-0.1-11.1-3.9-11.1-11.3
	c0-20.3,0-40.6,0-60.9c0-1,0-2,0-3.2L170.4,175.1L170.4,175.1z M226.4,156.1c-10.2,0-20.5,0-30.8,0c-5.4,0-6.4,1.1-6.4,6.5
	c0,24.9,0,49.8,0,74.6c0,1.1,0.1,2.1,0.2,3.2h37.1V156.1z M236.4,226.3c2,0,3.8-0.2,5.5,0c2.7,0.3,3.4-0.8,3.4-3.4
	c-0.1-14.9-0.1-29.9-0.1-44.8c0-1-0.1-2-0.2-3h-8.6L236.4,226.3L236.4,226.3z M236.3,165c2,0,3.7,0,5.4,0c2.4,0,3.6-1.2,3.5-3.7
	c0-0.5,0-0.9-0.1-1.4c-0.4-2.4-1.9-3.7-4.3-3.8c-2.4-0.1-4.3,1.5-4.5,3.9C236.2,161.5,236.3,162.9,236.3,165z"/>
<path class="st0" d="M33.7,85.3c-4.5-0.1-6.8-4.3-4.9-7.5c0.5-0.8,1.2-1.4,1.8-2.1c16.6-16.6,33.2-33.2,49.8-49.8
	c0.5-0.5,1-1.1,1.6-1.5c2-1.5,4.5-1.3,6.3,0.4c1.7,1.6,2,4.3,0.6,6.3c-0.3,0.5-0.7,0.9-1.1,1.3c-17,17-34,34-51,51
	C35.9,84.3,34.4,84.9,33.7,85.3L33.7,85.3z"/>
<path class="st0" d="M61.4,29.4c-0.3,0.4-0.7,1.8-1.6,2.7c-6,6.1-12,12.2-18.2,18.2c-2.4,2.4-5.3,2.4-7.3,0.4c-2-2-1.8-5,0.5-7.3
	c6-6.1,12.1-12.1,18.2-18.2c1.6-1.6,3.6-2.3,5.8-1.3C60.6,24.7,61.7,26.3,61.4,29.4L61.4,29.4z"/>
<path class="st0" d="M54.4,160.4c0.5,0,0.9,0,1.4,0c3.6,0,5.7,1.8,5.7,4.8c0,3-1.9,4.7-5.4,4.9c-1.5,0.1-2.9,0.1-4.4-0.1
	c-2.9-0.3-4.9-2.4-4.7-5.1c0.2-2.5,2.2-4.5,4.9-4.6C52.7,160.3,53.6,160.4,54.4,160.4L54.4,160.4z"/>
<path class="st0" d="M238.4,46.8c1.4,0.2,2.8,0.2,4,0.6c2.1,0.7,3.3,2.4,3.2,4.6c-0.1,2.2-1.2,4-3.4,4.4c-2.2,0.4-4.6,0.5-6.8,0.2
	c-2.8-0.3-4.4-2.6-4.2-5.2c0.2-2.5,2.2-4.4,5-4.6c0.7,0,1.5,0,2.2,0L238.4,46.8L238.4,46.8z"/>
<path class="st0" d="M205.5,47c5-0.1,7.2,1.6,7.1,5.1c0,0.5-0.1,1.1-0.3,1.6c-1.7,3.6-5,3.2-8.1,3.2c-2.7,0-4.9-0.8-5.8-3.7
	c-0.9-2.8,1-5.8,4.1-6.2C203.4,46.9,204.5,47,205.5,47L205.5,47z"/>
</svg>
