<svg id="Warstwa_1" data-name="Warstwa 1" xmlns="http://www.w3.org/2000/svg" viewBox="0 0 227.68 227.68"><defs><style>.cls-1{fill:#fff;}</style></defs><path class="cls-1" d="M119.61.84c2.74.43,5.48.88,8.23,1.27a71.54,71.54,0,0,1,18.1,5.28,82.23,82.23,0,0,1,47.3,55.45,80.38,80.38,0,0,1-.17,39.85,153.64,153.64,0,0,1-9.7,27.06c-11.45,24.81-26.41,47.43-43.12,68.95-6.49,8.35-13.27,16.48-20,24.62-3.92,4.73-8.67,4.67-12.7,0C88.26,201,70.62,177.58,55.89,152c-8.4-14.58-15.77-29.65-20.33-45.94A85.15,85.15,0,0,1,32,82.66,82.18,82.18,0,0,1,97.94,2.38c2.72-.57,5.52-.77,8.28-1.15.65-.09,1.28-.26,1.92-.39Zm-5.81,207a7.93,7.93,0,0,0,.75-.71c15.24-18.42,29.49-37.56,41.83-58.05C163.69,137,170.29,124.44,175,111c3.92-11.07,6.73-22.3,5.55-34.23a68.41,68.41,0,0,0-5.53-21.39,67.2,67.2,0,0,0-42.21-37,67,67,0,0,0-30.06-1.8,65.56,65.56,0,0,0-27.06,11,66.31,66.31,0,0,0-23.14,28,65.26,65.26,0,0,0-5.65,29.78A80.74,80.74,0,0,0,51.2,106.7a191,191,0,0,0,15.64,34.62c11.22,20,24.55,38.49,38.71,56.45C108.22,201.15,111,204.45,113.8,207.86ZM155,82.48a41.18,41.18,0,1,1-41.78-41A41.18,41.18,0,0,1,155,82.48ZM113.92,56.35A26.31,26.31,0,1,0,140.26,82.7,26.42,26.42,0,0,0,113.92,56.35Z"/></svg>