<svg id="Warstwa_1" data-name="Warstwa 1" xmlns="http://www.w3.org/2000/svg" viewBox="0 0 227.68 227.68"><defs><style>.cls-1{fill:#fff;}</style></defs><path class="cls-1" d="M127.34,9.3c3.66.94,7.33,1.79,11,2.81a109.45,109.45,0,0,1,42.1,22.73A112.09,112.09,0,0,1,218,100.2a5.53,5.53,0,0,0,.33.94V104c-.26.47-.49,1-.76,1.4a5.77,5.77,0,0,1-5.57,3.09,5.67,5.67,0,0,1-5.41-4c-.69-2.18-1.07-4.47-1.59-6.71a98.57,98.57,0,0,0-19.59-40.28,100,100,0,0,0-46.28-32.39c-4.41-1.5-9-2.37-13.56-3.53-.59-.15-1.19-.25-1.78-.41a6.12,6.12,0,0,1-1.46-11.44l.89-.47ZM78.94,92.75c4-4.22,8.24-8.3,12.12-12.67a18.3,18.3,0,0,0,4.56-12.14,18.06,18.06,0,0,0-4.74-13.08c-6.74-7.2-13.71-14.18-20.65-21.18a93.89,93.89,0,0,0-8.64-8.06c-5.34-4.19-11.35-5.53-18-3.43a24.83,24.83,0,0,0-10.07,6.33C29,33,24.58,37.67,20,42.11,11.59,50.21,8.64,60.2,9.45,71.56c.64,9,3.05,17.61,6.23,26A181.86,181.86,0,0,0,40,141.24,220.48,220.48,0,0,0,72.6,176.79a202.4,202.4,0,0,0,42.91,28.73c12.34,6.13,25,11.12,38.88,12.58,12,1.26,22.45-1.64,30.94-10.56,4.21-4.44,8.54-8.77,12.82-13.14a27.43,27.43,0,0,0,5.59-7.72,19.32,19.32,0,0,0,1.79-11.07c-.76-5.41-3.61-9.58-7.32-13.31q-11.36-11.45-22.76-22.84a38.68,38.68,0,0,0-3.62-3.28c-5.81-4.49-12.17-5.68-19.15-3.09-3.6,1.34-6.44,3.76-9.12,6.38-4,3.9-7.93,7.85-11.85,11.81a1.75,1.75,0,0,1-2.47.45c-2.29-1.33-4.74-2.39-7-3.83A151,151,0,0,1,83,110.35a70,70,0,0,1-8-13.48Zm58.58,109a182.12,182.12,0,0,1-54.46-32.18,203.44,203.44,0,0,1-47.13-57.33C30,101.59,25.28,90.43,22.79,78.43c-1.38-6.63-2-13.29.47-19.87a21,21,0,0,1,5-7.37c4.68-4.74,9.42-9.43,14.13-14.14l.29-.29c4.67-4.39,9-4.37,13.54.16q11.72,11.65,23.34,23.4a21.45,21.45,0,0,1,2.7,3.31,6.71,6.71,0,0,1,0,7.83A16.18,16.18,0,0,1,80,74.32c-4.63,4.61-9.33,9.13-13.93,13.76a18.14,18.14,0,0,0-3.22,4.15c-1.54,2.89-.75,5.8.48,8.62a101.65,101.65,0,0,0,15.19,23.8,168.52,168.52,0,0,0,31.64,29.89,125,125,0,0,0,16.68,9.78c3.93,2,7.78,1.2,11-2,4.84-4.77,9.62-9.61,14.45-14.39a19.9,19.9,0,0,1,3.12-2.61,7.05,7.05,0,0,1,8.54.25,20,20,0,0,1,2.28,2l23.08,23.08c.67.67,1.35,1.35,1.95,2.08a8,8,0,0,1,.31,10.64,23,23,0,0,1-2,2.29c-4.41,4.53-8.9,9-13.24,13.58-4.58,4.85-10.22,7-17.81,7A73.07,73.07,0,0,1,137.52,201.76Zm42.91-99a67.9,67.9,0,0,0-7-20.09C164.89,67,152.29,56,135.39,50.05a62.86,62.86,0,0,0-11.81-2.81c-3.33-.48-5.83,2-6.24,5.32a6,6,0,0,0,4.8,6.58c1.58.37,3.21.58,4.77,1,20.32,5.92,33.75,18.91,40,39.17.7,2.26,1.08,4.62,1.81,6.87a5.92,5.92,0,0,0,6.94,4,6.13,6.13,0,0,0,4.79-6.3A7.49,7.49,0,0,0,180.43,102.75Z"/></svg>