<?xml version="1.0" encoding="UTF-8"?><svg id="a" xmlns="http://www.w3.org/2000/svg" viewBox="0 0 383.6 367.37"><defs><style>.b{fill:#fff;}</style></defs><path class="b" d="M383.6,121.34c-3.34,4.53-5.94,5.07-10.76,2.14-4.86-2.96-9.69-5.97-15.2-9.36v5.03c0,67.24,0,134.48,0,201.72,0,8.65-1.48,10.1-10.26,10.1-5.99,0-11.98,.04-17.96-.01-4.85-.04-8.07-2.75-7.93-6.55,.14-3.71,3.18-6.14,7.92-6.19,5.1-.05,10.21-.01,15.9-.01v-4.2c0-67.99,0-135.98,.01-203.96,0-2.03-.05-3.68-2.2-5-26.57-16.26-53.08-32.63-79.6-48.97-.31-.19-.65-.33-1.87-.93,3.08,5,5.71,9.25,8.33,13.51,.78,1.27,1.63,2.52,2.3,3.85,1.65,3.27,.72,6.77-2.16,8.5-2.9,1.74-6.46,.98-8.49-2.14-3.4-5.22-6.6-10.57-9.88-15.87-3.61-5.83-7.39-11.56-10.77-17.51-2.23-3.93-5.19-6.75-9.06-9.06-11.66-6.96-23.2-14.13-34.71-21.36-2.3-1.45-3.97-1.49-6.37-.04-49.77,30.13-99.6,60.17-149.46,90.16-1.92,1.15-2.78,2.34-2.78,4.66,.06,68.49,.05,136.97,.06,205.46,0,.74,.08,1.48,.16,2.9,1.71,0,3.39,0,5.07,0,64.99,0,129.99,0,194.98,.02,1.85,0,3.75,.11,5.53,.57,2.92,.75,4.66,3.2,4.15,5.85-.4,2.09-2.35,4.1-4.08,5.61-.93,.82-2.84,.69-4.31,.69-68.49,.03-136.97,.03-205.46,.02-6.33,0-8.37-2.12-8.37-8.61,0-67.61,0-135.23,0-202.84,0-1.45,0-2.91,0-5.13-5.93,3.55-11.08,6.99-16.58,9.74-1.89,.94-4.86,.76-6.95,.02-2.69-.95-3.31-4.02-2.38-6.37,.78-1.98,2.63-3.89,4.49-5.02,26.83-16.32,53.74-32.51,80.62-48.73C119.87,43.3,154.25,22.61,188.55,1.79c3.91-2.38,7.16-2.4,11.03,.03,16.25,10.2,32.62,20.21,48.96,30.28,1.35,.84,2.74,1.62,4.75,2.8,0-6.59-.01-12.63,0-18.66,.01-6.6,2.15-8.75,8.72-8.76,11.48-.01,22.95-.02,34.43,0,5.97,.01,8.05,2.09,8.06,8.12,.03,15.72,.08,31.44-.06,47.15-.03,2.83,.8,4.47,3.26,5.97,23.61,14.41,47.14,28.94,70.65,43.52,1.95,1.21,3.5,3.05,5.24,4.59v4.49Zm-91.76-62.56V20.21c-8.03,0-15.75-.07-23.47,.11-.79,.02-2.18,1.55-2.21,2.42-.2,5.98-.16,11.96-.06,17.94,.02,.97,.46,2.36,1.18,2.82,8.05,5.12,16.18,10.1,24.56,15.28Z"/><path class="b" d="M100.96,239.95c-2.76,1.74-5.12,3.11-7.36,4.67-2.88,2-3.65,4.87-1.76,7.81,6.89,10.68,13.88,21.3,20.97,31.85,2.23,3.32,5.11,3.53,9.13,1.01,12.78-8.01,25.53-16.05,38.29-24.08,16.34-10.29,32.68-20.6,49.03-30.88,10.68-6.71,20.88-4.38,27.51,6.27,4.81,7.72,9.58,15.46,14.38,23.19,.64,1.03,1.36,2.01,2.22,3.28,2.62-1.63,4.99-3.2,7.44-4.62,4.01-2.33,7.13-1.72,9.61,2.2,16.65,26.33,33.26,52.69,49.82,79.07,2.47,3.93,1.78,7.12-2.08,9.6-8.8,5.66-17.66,11.24-26.56,16.74-3.84,2.37-7.13,1.59-9.6-2.31-16.65-26.33-33.25-52.69-49.81-79.07-2.49-3.96-1.71-6.98,2.12-9.58,1.34-.91,2.74-1.73,4.1-2.61,1.25-.81,2.48-1.63,3.99-2.63-.55-1.04-1-2.02-1.56-2.93-4.71-7.63-9.44-15.26-14.17-22.88-3.69-5.93-5.6-6.41-11.41-2.75-28.68,18.06-57.36,36.12-86.01,54.22-5.02,3.17-10.19,5.11-16.24,3.4-4.8-1.36-8.38-4.21-11.08-8.32-6.71-10.21-13.52-20.35-20.17-30.58-6.25-9.61-3.98-20.02,5.57-26.26,2.18-1.42,4.37-2.81,6.89-4.43-2.22-3.56-4.32-6.91-6.41-10.27-6.57-10.55-4.28-20.74,6.14-27.31,51.98-32.75,103.96-65.5,155.94-98.24,10.83-6.82,21.04-4.54,27.88,6.2,2.06,3.23,4.11,6.47,6.35,10.01,2.39-1.48,4.44-2.84,6.57-4.07,3.61-2.07,7.2-1.31,9.12,1.84,1.84,3.02,.94,6.35-2.44,8.7-2.04,1.42-4.17,2.71-6.52,4.23,1.7,2.71,3.17,5.45,5.01,7.92,8.77,11.8,5.32,23.76-7.11,31.4-37.89,23.3-75.36,47.27-113,70.98-13.39,8.43-26.76,16.89-40.17,25.3-11.45,7.19-21.33,4.89-28.6-6.58-1.93-3.04-3.86-6.08-6.01-9.46Zm188.24-97.62c-1.19-2.37-1.85-3.97-2.75-5.41-6.34-10.14-12.71-20.26-19.11-30.36-3.35-5.3-5.62-5.79-11.03-2.38-51.75,32.6-103.49,65.21-155.23,97.82-4.99,3.15-5.54,5.7-2.33,10.82,6.15,9.82,12.34,19.61,18.51,29.42,3.92,6.22,5.93,6.68,12.07,2.82,35-22.04,69.99-44.09,104.99-66.13,16.55-10.42,33.13-20.8,49.61-31.34,2.02-1.29,3.49-3.44,5.27-5.26Zm-43.46,140.37c14.73,23.37,29.29,46.48,43.99,69.8,5.86-3.72,11.36-7.22,17.06-10.83-14.8-23.48-29.32-46.52-43.95-69.74-5.76,3.63-11.31,7.13-17.1,10.77Z"/><path class="b" d="M51.59,154.97c.78,.6,2.87,1.52,3.89,3.12,7.17,11.22,14.16,22.56,21.09,33.92,2.02,3.32,1.06,6.99-1.92,8.82-2.84,1.74-6.51,1.05-8.5-2.1-7.18-11.36-14.29-22.77-21.21-34.29-2.68-4.46,.44-9.64,6.65-9.47Z"/><path class="b" d="M99.8,80.09c.84,.66,2.94,1.68,4.09,3.35,3.32,4.81,6.33,9.84,9.31,14.87,2.01,3.39,1.18,7-1.75,8.87-2.93,1.86-6.62,1.05-8.75-2.22-3.26-5.01-6.44-10.07-9.42-15.24-2.62-4.55,.26-9.68,6.53-9.63Z"/></svg>