<?xml version="1.0" encoding="utf-8"?>
<!-- Generator: Adobe Illustrator 26.2.1, SVG Export Plug-In . SVG Version: 6.00 Build 0)  -->
<svg version="1.1" id="a" xmlns="http://www.w3.org/2000/svg" xmlns:xlink="http://www.w3.org/1999/xlink" x="0px" y="0px"
	 viewBox="0 0 383.6 367.4" style="enable-background:new 0 0 383.6 367.4;" xml:space="preserve">
<style type="text/css">
	.st0{fill:#BB000E;}
</style>
<path class="st0" d="M383.6,121.3c-3.3,4.5-5.9,5.1-10.8,2.1c-4.9-3-9.7-6-15.2-9.4v5c0,67.2,0,134.5,0,201.7
	c0,8.6-1.5,10.1-10.3,10.1c-6,0-12,0-18,0c-4.9,0-8.1-2.8-7.9-6.5c0.1-3.7,3.2-6.1,7.9-6.2c5.1,0,10.2,0,15.9,0V314
	c0-68,0-136,0-204c0-2,0-3.7-2.2-5c-26.6-16.3-53.1-32.6-79.6-49c-0.3-0.2-0.6-0.3-1.9-0.9c3.1,5,5.7,9.2,8.3,13.5
	c0.8,1.3,1.6,2.5,2.3,3.8c1.6,3.3,0.7,6.8-2.2,8.5c-2.9,1.7-6.5,1-8.5-2.1c-3.4-5.2-6.6-10.6-9.9-15.9c-3.6-5.8-7.4-11.6-10.8-17.5
	c-2.2-3.9-5.2-6.8-9.1-9.1c-11.7-7-23.2-14.1-34.7-21.4c-2.3-1.4-4-1.5-6.4,0c-49.8,30.1-99.6,60.2-149.5,90.2
	c-1.9,1.2-2.8,2.3-2.8,4.7c0.1,68.5,0,137,0.1,205.5c0,0.7,0.1,1.5,0.2,2.9c1.7,0,3.4,0,5.1,0c65,0,130,0,195,0
	c1.9,0,3.8,0.1,5.5,0.6c2.9,0.8,4.7,3.2,4.1,5.9c-0.4,2.1-2.4,4.1-4.1,5.6c-0.9,0.8-2.8,0.7-4.3,0.7c-68.5,0-137,0-205.5,0
	c-6.3,0-8.4-2.1-8.4-8.6c0-67.6,0-135.2,0-202.8c0-1.4,0-2.9,0-5.1c-5.9,3.6-11.1,7-16.6,9.7c-1.9,0.9-4.9,0.8-6.9,0
	c-2.7-0.9-3.3-4-2.4-6.4c0.8-2,2.6-3.9,4.5-5C31.7,96.4,58.6,80.2,85.5,64c34.3-20.7,68.7-41.4,103-62.2c3.9-2.4,7.2-2.4,11,0
	c16.2,10.2,32.6,20.2,49,30.3c1.4,0.8,2.7,1.6,4.8,2.8c0-6.6,0-12.6,0-18.7c0-6.6,2.1-8.8,8.7-8.8c11.5,0,23,0,34.4,0
	c6,0,8,2.1,8.1,8.1c0,15.7,0.1,31.4-0.1,47.2c0,2.8,0.8,4.5,3.3,6c23.6,14.4,47.1,28.9,70.6,43.5c2,1.2,3.5,3.1,5.2,4.6L383.6,121.3
	L383.6,121.3z M291.8,58.8V20.2c-8,0-15.8-0.1-23.5,0.1c-0.8,0-2.2,1.5-2.2,2.4c-0.2,6-0.2,12-0.1,17.9c0,1,0.5,2.4,1.2,2.8
	C275.3,48.6,283.5,53.6,291.8,58.8z"/>
<path class="st0" d="M101,239.9c-2.8,1.7-5.1,3.1-7.4,4.7c-2.9,2-3.7,4.9-1.8,7.8c6.9,10.7,13.9,21.3,21,31.9c2.2,3.3,5.1,3.5,9.1,1
	c12.8-8,25.5-16,38.3-24.1c16.3-10.3,32.7-20.6,49-30.9c10.7-6.7,20.9-4.4,27.5,6.3c4.8,7.7,9.6,15.5,14.4,23.2c0.6,1,1.4,2,2.2,3.3
	c2.6-1.6,5-3.2,7.4-4.6c4-2.3,7.1-1.7,9.6,2.2c16.6,26.3,33.3,52.7,49.8,79.1c2.5,3.9,1.8,7.1-2.1,9.6c-8.8,5.7-17.7,11.2-26.6,16.7
	c-3.8,2.4-7.1,1.6-9.6-2.3c-16.6-26.3-33.2-52.7-49.8-79.1c-2.5-4-1.7-7,2.1-9.6c1.3-0.9,2.7-1.7,4.1-2.6c1.2-0.8,2.5-1.6,4-2.6
	c-0.6-1-1-2-1.6-2.9c-4.7-7.6-9.4-15.3-14.2-22.9c-3.7-5.9-5.6-6.4-11.4-2.8c-28.7,18.1-57.4,36.1-86,54.2c-5,3.2-10.2,5.1-16.2,3.4
	c-4.8-1.4-8.4-4.2-11.1-8.3c-6.7-10.2-13.5-20.4-20.2-30.6c-6.2-9.6-4-20,5.6-26.3c2.2-1.4,4.4-2.8,6.9-4.4
	c-2.2-3.6-4.3-6.9-6.4-10.3c-6.6-10.6-4.3-20.7,6.1-27.3c52-32.8,104-65.5,155.9-98.2c10.8-6.8,21-4.5,27.9,6.2
	c2.1,3.2,4.1,6.5,6.4,10c2.4-1.5,4.4-2.8,6.6-4.1c3.6-2.1,7.2-1.3,9.1,1.8c1.8,3,0.9,6.3-2.4,8.7c-2,1.4-4.2,2.7-6.5,4.2
	c1.7,2.7,3.2,5.4,5,7.9c8.8,11.8,5.3,23.8-7.1,31.4c-37.9,23.3-75.4,47.3-113,71c-13.4,8.4-26.8,16.9-40.2,25.3
	c-11.4,7.2-21.3,4.9-28.6-6.6C105.1,246.4,103.1,243.4,101,239.9L101,239.9z M289.2,142.3c-1.2-2.4-1.9-4-2.8-5.4
	c-6.3-10.1-12.7-20.3-19.1-30.4c-3.4-5.3-5.6-5.8-11-2.4c-51.8,32.6-103.5,65.2-155.2,97.8c-5,3.1-5.5,5.7-2.3,10.8
	c6.2,9.8,12.3,19.6,18.5,29.4c3.9,6.2,5.9,6.7,12.1,2.8c35-22,70-44.1,105-66.1c16.6-10.4,33.1-20.8,49.6-31.3
	C286,146.3,287.4,144.1,289.2,142.3L289.2,142.3z M245.7,282.7c14.7,23.4,29.3,46.5,44,69.8c5.9-3.7,11.4-7.2,17.1-10.8
	c-14.8-23.5-29.3-46.5-44-69.7C257.1,275.6,251.5,279.1,245.7,282.7L245.7,282.7z"/>
<path class="st0" d="M51.6,155c0.8,0.6,2.9,1.5,3.9,3.1c7.2,11.2,14.2,22.6,21.1,33.9c2,3.3,1.1,7-1.9,8.8c-2.8,1.7-6.5,1.1-8.5-2.1
	C59,187.4,51.9,176,44.9,164.4C42.3,160,45.4,154.8,51.6,155L51.6,155z"/>
<path class="st0" d="M99.8,80.1c0.8,0.7,2.9,1.7,4.1,3.3c3.3,4.8,6.3,9.8,9.3,14.9c2,3.4,1.2,7-1.8,8.9c-2.9,1.9-6.6,1.1-8.8-2.2
	c-3.3-5-6.4-10.1-9.4-15.2C90.7,85.2,93.5,80,99.8,80.1L99.8,80.1z"/>
</svg>
