<?xml version="1.0" encoding="utf-8"?>
<!-- Generator: Adobe Illustrator 26.2.1, SVG Export Plug-In . SVG Version: 6.00 Build 0)  -->
<svg version="1.1" id="a" xmlns="http://www.w3.org/2000/svg" xmlns:xlink="http://www.w3.org/1999/xlink" x="0px" y="0px"
	 viewBox="0 0 312.7 283.5" style="enable-background:new 0 0 312.7 283.5;" xml:space="preserve">
<style type="text/css">
	.st0{fill:#BB000E;}
</style>
<path class="st0" d="M312.7,280.4c-1.4,2.3-3.5,3.1-6.2,3.1c-21.4,0-42.7,0-64.1,0c-2.7,0-5.1-0.6-6-3.6c-1-3.4,1.4-6.2,5.4-6.2
	c7.3-0.1,14.6,0,22,0c1.1,0,2.2,0,3.5,0v-33.9H121.8v33.9h3.9c31.3,0,62.7,0,94,0c1.1,0,2.3-0.1,3.3,0.1c2.5,0.5,4.2,2,4.2,4.8
	c0,2.6-1.6,4.1-4,4.7c-1,0.2-2,0.2-3,0.2c-45.7,0-91.4,0-137.1,0c-5.4,0-6.9-1.5-6.9-6.9c0-20.6,0.3-41.1-0.1-61.7
	c-0.2-12.1,7.3-20.9,16.5-23.6c0.4-0.1,0.7-0.3,1.3-0.5c0-5.1,0-10.3,0-15.5c0.1-16.8,12.1-29.1,28.8-29.4c5.1-0.1,10.2-0.1,15.3,0
	c3.7,0,5.9,1.8,5.9,4.7c0,3-2.2,4.7-6.1,4.8c-6.3,0.1-12.6-0.1-18.9,0.6c-8.4,1-14.8,8.5-15.2,17c-0.2,5.3-0.1,10.6-0.2,15.9
	c0,1.6,0.5,2.3,2,2.9c10.4,3.9,15.8,11.8,15.8,22.8c0,5.1,0,10.1,0,15.3h146c0-5.2,0-10.3,0-15.3c0-5.1,1.1-9.9,4.1-14.1
	c2.9-4.1,6.7-7.1,11.5-8.7c1.7-0.6,2.4-1.4,2.4-3.2c-0.1-4.5,0.1-9-0.1-13.4c-0.3-12.1-8.3-19.8-20.4-19.8c-19.5,0-39.1,0-58.6,0
	c-16,0-31.9,0.1-47.9-0.1c-1.7,0-4-1.1-5-2.5c-1.9-2.5,0.1-6.1,3.2-6.7c0.7-0.1,1.4-0.1,2.1-0.1c36.3,0,72.7,0,109,0.1
	c14.4,0.1,27,12.8,27.3,27.2c0.1,5.9,0,11.8,0,17.8c6.1,1.7,11.1,4.9,14.4,10.3c1.3,2.2,2.2,4.7,3.3,7.1L312.7,280.4L312.7,280.4z
	 M111.5,273.5c0.1-0.7,0.2-1.2,0.2-1.7c0-19.8,0.1-39.6,0-59.5c0-6-5.1-11.4-11-11.9c-7-0.7-13,3.2-14.4,9.4c-0.3,1.5-0.5,3-0.5,4.5
	c0,18.9,0,37.8,0,56.7c0,0.8,0.2,1.5,0.3,2.4L111.5,273.5L111.5,273.5z M303.4,273.4c0-20.3,0.1-40.3-0.1-60.2
	c-0.1-7.9-6-13.1-13.6-12.9c-7.3,0.2-12.4,5.8-12.4,13.8c0,18.7,0,37.4,0,56.2c0,1.1,0.1,2.1,0.1,3.2L303.4,273.4L303.4,273.4z"/>
<path class="st0" d="M133.6,10.6c2.3,2.2,4.6,4.5,7.1,6.5c0.6,0.5,1.7,0.5,2.6,0.5c34.2,0,68.4,0,102.6,0c1.2,0,2.7-0.7,3.7-1.5
	c2.1-1.7,3.9-3.7,5.6-6.3c-3.2,0-6.4,0-9.6,0c-1.2,0-2.4,0-3.7,0c-3.6-0.1-5.7-1.9-5.6-5c0.1-2.9,2-4.7,5.5-4.8
	c4.2-0.1,8.3,0,12.5,0c4.2,0,8.4-0.1,12.5,0c3.7,0.1,5.6,2.1,5.6,5.8c0,35.4,0,70.8,0,106.2c0,3.6-1.8,5.4-5.5,5.4
	c-6.2,0.1-12.4,0-18.6,0c-41.3,0-82.6,0-123.9,0c-6.6,0-7.7-1.2-7.7-7.9c0-34,0-68,0-102c0-6.2,1.4-7.7,7.8-7.7
	c31.9,0,63.7,0,95.6,0c5,0,7.3,1.5,7.3,4.9c0,3.4-2.3,4.9-7.3,5c-27.6,0-55.2,0-82.7,0H134L133.6,10.6L133.6,10.6z M244.8,27.8
	H144.3v44l0.7,0.5c0.4-0.6,0.6-1.3,1.1-1.8c3.3-3.7,6.7-7.4,10-11.1c5.9-6.6,13.6-6.7,19.6-0.3c1.7,1.8,3.3,3.6,4.9,5.4
	c3,3.3,6.1,6.7,9.3,10.2c7.6-8.5,15-16.6,22.3-24.8c7.5-8.3,15.2-8.3,22.8,0c3.1,3.4,6.2,6.8,9.9,10.8V27.8L244.8,27.8z M244.9,90.3
	c0-4.9,0.1-9.4-0.1-13.9c0-1-0.8-2.1-1.5-2.8c-5.4-6-10.8-11.9-16.2-17.8c-2.8-3-4.5-3.1-7.3,0c-6.9,7.7-13.9,15.4-20.8,23.1
	c-0.9,1-1.8,2.1-2.8,3.2c1.9,2.1,3.7,3.9,5.2,5.9c1.4,1.8,2.9,2.4,5.2,2.4c8.8-0.1,17.5-0.1,26.2-0.1
	C236.8,90.3,240.7,90.3,244.9,90.3L244.9,90.3z M133,107.8h123.2c-2.7-2.6-4.8-4.7-7.1-6.6c-0.9-0.7-2.1-1.2-3.2-1.2
	c-34.2-0.1-68.4-0.1-102.6,0c-1.1,0-2.4,0.5-3.3,1.2C137.8,103.1,135.7,105.2,133,107.8L133,107.8z M190,90.2
	c-0.1-0.4-0.1-0.7-0.2-0.8c-7.2-8-14.4-16-21.6-24c-1.7-1.9-3.4-1.4-4.9,0.4c-6,6.7-12,13.3-17.9,20c-0.9,1.1-1.1,2.7-1.9,4.5H190
	L190,90.2z M126.6,100.1l0.6,0.5c1.4-1.5,2.7-3.2,4.3-4.6c2.2-1.8,2.9-4,2.9-6.9c-0.1-19.8-0.4-39.7,0.1-59.5
	c0.2-6.5-4.1-8.7-7.9-12.8V100.1L126.6,100.1z M261.7,100.5l0.7-0.4V17.7l-0.9-0.6c-1.7,2-3.5,3.9-5.1,5.9c-0.8,1.1-1.6,2.6-1.6,4
	c-0.1,21.4-0.1,42.8,0,64.1c0,1,0.3,2.2,0.9,3C257.6,96.3,259.7,98.4,261.7,100.5L261.7,100.5z"/>
<path class="st0" d="M68.5,98.9c0,1.8,0,2.9,0,4.2c0,15.2,0,30.3,0,45.5c0,1.3,0.1,3-0.6,3.8c-1.2,1.3-3,2.7-4.5,2.7
	c-1.4,0-3.1-1.6-4-3c-0.7-1-0.6-2.7-0.6-4.1c0-15.3-0.1-30.5,0-45.8c0-2.5-0.7-3.3-3.2-3.3c-7.9,0.1-7.9,0-7.9,8
	c0,48.5,0,97.1,0,145.6v4.3c2.9,0.3,5.4,0.4,7.8,0.8c9.8,1.8,16.5,9.7,16.9,19.5c0.1,4.3-1.6,6.2-5.9,6.2c-10.2,0-20.4,0-30.5,0
	c-5.4,0-10.8,0-16.2,0c-5.4,0-7.5-2.6-6.6-8c2-11.4,10-18.2,21.6-18.4c0.9,0,1.8,0,3,0v-158c-1.1-0.1-2.2-0.2-3.4-0.2
	c-9,0-17.9,0-26.9,0c-6.6,0-8.2-2-6.8-8.4C5.6,68.2,10.7,46,15.8,23.7c0.9-3.9,2.1-4.9,6.1-4.9c13.8,0,27.7,0,41.5,0
	c3.9,0,5.4,1.1,6.2,4.8c5.2,22.7,10.3,45.5,15.5,68.2c0.9,4.2-0.9,6.7-5.2,6.9C76.2,99,72.6,98.9,68.5,98.9L68.5,98.9z M74.6,89
	c-4.7-20.5-9.3-40.5-13.9-60.7c-11.7,0-23,0-34.2,0c-2.1,0-2.2,1.2-2.5,2.6c-3.4,15-6.9,30-10.3,45c-1,4.3-1.9,8.6-2.9,13.1H74.6
	L74.6,89z M61.8,273.5c-2-4-4.8-6.3-8.7-6.5c-7-0.2-14-0.2-21,0c-3.9,0.1-7.4,3.1-8,6.5L61.8,273.5L61.8,273.5z"/>
<path class="st0" d="M189.7,58.2c-7.3,0-13.3-6-13.2-13.1c0.1-7.1,6.2-13.2,13.3-13.2c7.2,0,13,6,13,13.3
	C202.8,52.6,197.1,58.2,189.7,58.2L189.7,58.2z M185.8,44.3l-0.1,1.4c1.3,1,2.4,2.4,3.8,2.9c1.7,0.6,3.9-1.6,3.7-3.5
	c-0.2-2-1.3-3.7-3.4-3.4C188.4,42,187.2,43.4,185.8,44.3L185.8,44.3z"/>
</svg>
