<?xml version="1.0" encoding="UTF-8"?><svg id="a" xmlns="http://www.w3.org/2000/svg" viewBox="0 0 312.68 283.46"><defs><style>.b{fill:#fff;}</style></defs><path class="b" d="M312.68,280.36c-1.41,2.33-3.52,3.11-6.17,3.11-21.37-.04-42.74-.03-64.11-.02-2.74,0-5.15-.64-6.04-3.57-1.03-3.4,1.38-6.2,5.43-6.25,7.33-.08,14.65-.03,21.98-.03,1.1,0,2.19,0,3.52,0v-33.87H121.78v33.87h3.9c31.34,0,62.68,0,94.03,0,1.12,0,2.27-.09,3.34,.14,2.54,.55,4.21,2.03,4.19,4.83-.02,2.64-1.61,4.09-4.01,4.68-.97,.24-2.02,.18-3.03,.18-45.69,0-91.38,0-137.07,0-5.37,0-6.9-1.53-6.9-6.85,0-20.56,.27-41.12-.1-61.66-.22-12.12,7.29-20.94,16.53-23.59,.38-.11,.74-.3,1.3-.53,0-5.15-.01-10.33,0-15.51,.05-16.82,12.09-29.13,28.83-29.42,5.09-.09,10.18-.05,15.26-.02,3.74,.02,5.91,1.76,5.94,4.66,.04,2.99-2.22,4.69-6.14,4.77-6.29,.13-12.64-.12-18.87,.64-8.38,1.03-14.79,8.54-15.16,17.02-.23,5.28-.05,10.58-.16,15.87-.03,1.57,.54,2.3,2.01,2.86,10.41,3.93,15.8,11.75,15.85,22.84,.02,5.06,0,10.11,0,15.34h145.97c0-5.22-.02-10.28,0-15.33,.03-5.08,1.1-9.88,4.07-14.12,2.89-4.12,6.66-7.13,11.47-8.66,1.73-.55,2.44-1.38,2.39-3.22-.11-4.47,.06-8.96-.06-13.43-.33-12.12-8.26-19.81-20.43-19.82-19.54-.03-39.08,0-58.61,0-15.98,0-31.95,.08-47.93-.11-1.72-.02-3.97-1.15-5-2.51-1.89-2.49,.07-6.15,3.19-6.71,.7-.12,1.42-.1,2.13-.1,36.33,.01,72.66-.04,108.98,.09,14.39,.05,26.99,12.76,27.29,27.18,.12,5.89,.02,11.79,.02,17.79,6.13,1.73,11.13,4.87,14.35,10.29,1.32,2.23,2.2,4.72,3.28,7.09v72.06Zm-201.17-6.86c.09-.73,.2-1.22,.2-1.71,0-19.83,.05-39.65-.04-59.48-.03-6.03-5.13-11.35-11-11.92-7.02-.68-12.97,3.18-14.41,9.42-.34,1.47-.54,3.02-.54,4.53-.04,18.91-.03,37.82-.01,56.73,0,.78,.16,1.55,.26,2.42h25.53Zm191.86-.07c0-20.34,.14-40.28-.07-60.21-.08-7.89-6-13.15-13.61-12.91-7.32,.23-12.36,5.81-12.36,13.77-.01,18.72,0,37.43,0,56.15,0,1.07,.1,2.14,.15,3.2h25.89Z"/><path class="b" d="M133.58,10.6c2.34,2.2,4.62,4.46,7.05,6.54,.59,.5,1.7,.55,2.57,.55,34.19,.03,68.39,.04,102.58-.04,1.25,0,2.71-.67,3.7-1.48,2.1-1.71,3.95-3.71,5.6-6.31-3.2,0-6.39,0-9.59,0-1.22,0-2.44,.03-3.66-.01-3.64-.12-5.67-1.95-5.62-5.01,.05-2.91,2.04-4.72,5.52-4.79,4.17-.08,8.34-.02,12.52-.02,4.17,0,8.35-.07,12.52,.03,3.68,.09,5.64,2.07,5.65,5.75,.03,35.41,.03,70.83,0,106.24,0,3.61-1.84,5.41-5.5,5.45-6.21,.08-12.41,.03-18.62,.03-41.32,0-82.63,0-123.95,0-6.57,0-7.73-1.19-7.73-7.86,0-33.99,0-67.98,0-101.97,0-6.25,1.45-7.68,7.76-7.68,31.85,0,63.7,0,95.56,0,5.02,0,7.32,1.53,7.34,4.88,.02,3.37-2.29,4.95-7.27,4.96-27.58,0-55.16,0-82.73,0h-3.25l-.44,.74Zm111.2,17.23h-100.49v44.03l.72,.54c.35-.61,.6-1.3,1.05-1.81,3.31-3.72,6.67-7.41,10-11.11,5.93-6.59,13.55-6.73,19.57-.31,1.67,1.78,3.26,3.63,4.9,5.44,3.04,3.35,6.1,6.69,9.28,10.17,7.63-8.47,14.97-16.63,22.34-24.76,7.52-8.3,15.25-8.29,22.78-.03,3.11,3.41,6.24,6.81,9.85,10.75V27.82Zm.17,62.51c0-4.95,.09-9.42-.07-13.88-.03-.97-.77-2.06-1.47-2.84-5.36-5.98-10.8-11.9-16.21-17.84-2.78-3.04-4.54-3.07-7.26-.05-6.95,7.7-13.9,15.41-20.84,23.12-.93,1.04-1.83,2.1-2.79,3.22,1.9,2.11,3.72,3.9,5.25,5.91,1.36,1.78,2.88,2.45,5.16,2.41,8.75-.14,17.5-.06,26.24-.06,3.84,0,7.69,0,11.99,0Zm-111.98,17.43h123.16c-2.74-2.59-4.8-4.7-7.06-6.58-.85-.7-2.15-1.19-3.25-1.2-34.19-.06-68.37-.06-102.56,0-1.1,0-2.41,.49-3.26,1.19-2.25,1.88-4.31,4-7.03,6.58Zm57.06-17.57c-.09-.43-.06-.67-.17-.79-7.19-8.02-14.37-16.04-21.6-24.03-1.7-1.88-3.36-1.37-4.91,.36-5.96,6.66-11.99,13.27-17.87,20-.91,1.05-1.14,2.68-1.86,4.46h46.4Zm-63.43,9.95l.61,.46c1.42-1.53,2.7-3.23,4.29-4.55,2.23-1.85,2.89-4,2.87-6.87-.12-19.82-.38-39.65,.11-59.46,.16-6.46-4.13-8.72-7.88-12.75V100.14Zm135.12,.38l.68-.42V17.67l-.87-.64c-1.71,1.97-3.55,3.85-5.1,5.95-.83,1.13-1.63,2.62-1.63,3.96-.1,21.37-.08,42.75-.03,64.12,0,1.01,.33,2.25,.95,3,1.88,2.26,3.98,4.33,5.99,6.47Z"/><path class="b" d="M68.47,98.89c0,1.75,0,2.95,0,4.16,0,15.16,.01,30.33-.02,45.49,0,1.29,.11,2.99-.62,3.79-1.16,1.29-2.98,2.71-4.52,2.71-1.38,0-3.1-1.61-4.04-2.96-.71-1.02-.56-2.73-.57-4.14-.03-15.27-.07-30.53,.03-45.8,.02-2.51-.69-3.31-3.24-3.29-7.94,.06-7.94-.04-7.94,8.03,0,48.55,0,97.1,0,145.64v4.27c2.87,.3,5.39,.4,7.85,.84,9.79,1.78,16.55,9.68,16.85,19.55,.13,4.33-1.59,6.23-5.93,6.25-10.18,.05-20.36,.02-30.53,.02-5.39,0-10.79,.02-16.18,0-5.4-.02-7.54-2.62-6.61-7.98,1.97-11.36,10.05-18.22,21.59-18.36,.91-.01,1.81,0,2.95,0V99.11c-1.08-.07-2.25-.2-3.42-.2-8.96-.02-17.91,0-26.87-.01-6.63,0-8.24-1.98-6.76-8.45C5.57,68.21,10.66,45.98,15.76,23.74c.89-3.89,2.13-4.86,6.11-4.86,13.84,0,27.68,0,41.53,0,3.89,0,5.36,1.11,6.21,4.84,5.18,22.74,10.34,45.48,15.49,68.22,.95,4.2-.91,6.73-5.23,6.91-3.64,.15-7.29,.03-11.4,.03Zm6.14-9.87c-4.68-20.46-9.28-40.55-13.89-60.71-11.66,0-22.95,.05-34.23-.04-2.06-.02-2.23,1.25-2.55,2.65-3.44,15.02-6.89,30.03-10.32,45.05-.98,4.29-1.88,8.59-2.85,13.05h63.85Zm-12.77,184.49c-2.03-3.99-4.78-6.33-8.7-6.46-7.01-.23-14.03-.18-21.05-.02-3.9,.09-7.43,3.15-8.02,6.48H61.83Z"/><path class="b" d="M189.7,58.23c-7.28-.01-13.26-5.96-13.19-13.13,.07-7.11,6.24-13.21,13.31-13.16,7.25,.05,13.04,5.95,13.03,13.28-.01,7.37-5.72,13.02-13.16,13Zm-3.87-13.96l-.05,1.44c1.26,1.01,2.38,2.43,3.81,2.94,1.66,.59,3.87-1.63,3.71-3.48-.17-2.01-1.31-3.71-3.43-3.37-1.44,.23-2.7,1.61-4.04,2.47Z"/></svg>