<?xml version="1.0" encoding="UTF-8"?><svg id="a" xmlns="http://www.w3.org/2000/svg" viewBox="0 0 283.46 283.46"><defs><style>.b{fill:#fff;}</style></defs><path class="b" d="M0,279.99V0H279.99c2.68,1.69,3.48,4.08,3.47,7.24-.07,89.6-.05,179.2-.05,268.79,0,5.74-1.64,7.38-7.38,7.38-89.6,0-179.2-.01-268.79,.05-3.15,0-5.55-.8-7.23-3.47ZM104.93,38.85l.68,.79c.99,0,1.98,0,2.97,0,7.38,.02,14.75-.04,22.13,.07,10.78,.17,19.56,4.65,26.54,12.73,5.97,6.9,11.85,13.89,17.75,20.85,3.22,3.8,3.11,6.28-.44,9.84-6.52,6.53-13.05,13.04-19.58,19.55-2.71,2.71-5.07,6.13-9.91,4.48v3.55c0,15.4,0,30.8,0,46.2,0,5.03-1.99,6.98-7.05,6.98-25.27,0-50.54,0-75.81,0-5.57,0-7.48-1.88-7.48-7.42,0-15.4,0-30.8,0-46.2,0-1.06,0-2.12,0-3.49-3.72,1.5-6.19,.28-8.55-2.12-7.16-7.31-14.47-14.48-21.7-21.73-3.3-3.3-3.41-5.92-.44-9.42,5.96-7.03,11.92-14.07,17.93-21.06,5.59-6.51,12.51-11.01,21.07-12.12,5.63-.73,11.39-.54,17.09-.65,4.56-.09,9.13-.02,13.7-.02,.35-6.42,3.35-10.36,8.83-12.68,3.9-1.64,5.84-5.54,4.94-9.16-.98-3.97-4.74-6.91-8.45-6.6-4.29,.35-7.31,3.58-7.75,8.28-.33,3.55-2.58,5.66-5.93,5.56-3.28-.1-5.54-2.47-5.34-6.03,.14-2.59,.72-5.15,1.09-7.65H11.4V183.45H188.04v-3.41c0-15.22,0-30.43,0-45.65,0-4.06-.05-8.12,.02-12.17,.06-3.52,2.64-5.79,6.13-5.55,3.26,.22,5.11,2.58,5.11,6.6,0,48.42,0,96.83,0,145.25v3.39h72.67V11.36h-72.67c0,1.28,0,2.38,0,3.47,0,19,0,37.99,0,56.99,0,4.18-2.45,6.6-6.25,6.28-3.07-.26-5-2.58-5-6.14-.01-19.09,0-38.18,0-57.27,0-1.08,0-2.16,0-3.38H117.75c3.93,12.88-.58,21.94-12.83,27.54Zm-38.6,113.58h67.1c.06-1.27,.15-2.36,.16-3.45,.02-4.88,0-9.77,0-14.65,0-13.46,.02-26.91,0-40.37,0-2.79,.74-5.18,3.55-6.27,2.83-1.09,5.2-.17,7.14,2.09,1.11,1.29,2.32,2.5,3.24,3.49,5.43-5.45,10.6-10.64,15.9-15.95-5.31-6.17-10.6-12.68-16.29-18.83-6.03-6.51-13.86-8.16-22.38-7.31-2.47,15.79-10.95,24.36-24.55,24.88-5.73,.22-10.9-1.47-15.47-4.91-6.61-4.97-9.65-11.84-10.17-19.99-8.15-.74-15.69,.48-21.4,6.33-6.22,6.38-11.81,13.37-17.29,19.65,5.46,5.51,10.69,10.79,16.27,16.42,1.26-1.39,2.65-2.98,4.12-4.5,1.78-1.85,4-2.27,6.35-1.42,2.31,.84,3.39,2.73,3.64,5.1,.1,1,.09,2.02,.09,3.04,0,17.6,0,35.21,0,52.81,0,1.19,0,2.38,0,3.83Zm121.57,42.6H11.35v32.64H187.9v-32.64Zm0,44.27H11.35v32.63H187.9v-32.63ZM112.68,51.23h-26.17c-.43,7.23,5.6,13.37,12.94,13.42,7.51,.05,13.65-6.07,13.23-13.42Z"/><path class="b" d="M225.86,141.86c0,.92,.04,1.84,0,2.76-.15,3.25-2.47,5.46-5.69,5.43-3.09-.03-5.41-2.2-5.54-5.3-.08-2.02-.07-4.05,0-6.06,.11-3.25,2.46-5.46,5.68-5.43,3.1,.03,5.38,2.19,5.55,5.29,.06,1.1,0,2.21,.01,3.31Z"/><path class="b" d="M193.77,103.02c-3.31,.04-5.74-2.36-5.73-5.66,.01-3.19,2.34-5.55,5.52-5.59,3.32-.04,5.75,2.36,5.73,5.66-.01,3.18-2.35,5.55-5.53,5.59Z"/><path class="b" d="M99.53,217c-1.01,0-2.02,.04-3.03,0-3.1-.17-5.27-2.46-5.29-5.55-.03-3.22,2.17-5.57,5.43-5.68,2.02-.07,4.05-.08,6.06,0,3.1,.13,5.27,2.45,5.3,5.54,.03,3.22-2.18,5.55-5.43,5.69-1.01,.04-2.02,0-3.03,0Z"/><path class="b" d="M99.88,250.02c.92,0,1.84-.04,2.76,0,3.12,.15,5.31,2.41,5.36,5.49,.05,3.23-2.14,5.62-5.37,5.74-2.11,.08-4.23,.1-6.34-.01-3.03-.17-5.13-2.63-5.08-5.75,.05-2.96,2.16-5.26,5.09-5.46,1.19-.08,2.39-.01,3.58-.02Z"/></svg>