<?xml version="1.0" encoding="utf-8"?>
<!-- Generator: Adobe Illustrator 26.2.1, SVG Export Plug-In . SVG Version: 6.00 Build 0)  -->
<svg version="1.1" id="a" xmlns="http://www.w3.org/2000/svg" xmlns:xlink="http://www.w3.org/1999/xlink" x="0px" y="0px"
	 viewBox="0 0 283.5 283.5" style="enable-background:new 0 0 283.5 283.5;" xml:space="preserve">
<style type="text/css">
	.st0{fill:#BB000E;}
</style>
<path class="st0" d="M0,280V0h280c2.7,1.7,3.5,4.1,3.5,7.2c-0.1,89.6,0,179.2,0,268.8c0,5.7-1.6,7.4-7.4,7.4
	c-89.6,0-179.2,0-268.8,0C4.1,283.5,1.7,282.7,0,280L0,280z M104.9,38.8l0.7,0.8c1,0,2,0,3,0c7.4,0,14.8,0,22.1,0.1
	c10.8,0.2,19.6,4.7,26.5,12.7c6,6.9,11.9,13.9,17.8,20.9c3.2,3.8,3.1,6.3-0.4,9.8c-6.5,6.5-13.1,13-19.6,19.6
	c-2.7,2.7-5.1,6.1-9.9,4.5v3.6c0,15.4,0,30.8,0,46.2c0,5-2,7-7.1,7c-25.3,0-50.5,0-75.8,0c-5.6,0-7.5-1.9-7.5-7.4
	c0-15.4,0-30.8,0-46.2c0-1.1,0-2.1,0-3.5c-3.7,1.5-6.2,0.3-8.5-2.1C39,97.4,31.7,90.2,24.5,82.9c-3.3-3.3-3.4-5.9-0.4-9.4
	c6-7,11.9-14.1,17.9-21.1c5.6-6.5,12.5-11,21.1-12.1c5.6-0.7,11.4-0.5,17.1-0.7c4.6-0.1,9.1,0,13.7,0c0.3-6.4,3.3-10.4,8.8-12.7
	c3.9-1.6,5.8-5.5,4.9-9.2c-1-4-4.7-6.9-8.4-6.6c-4.3,0.4-7.3,3.6-7.8,8.3c-0.3,3.5-2.6,5.7-5.9,5.6c-3.3-0.1-5.5-2.5-5.3-6
	c0.1-2.6,0.7-5.1,1.1-7.6H11.4v172.1H188V180c0-15.2,0-30.4,0-45.7c0-4.1-0.1-8.1,0-12.2c0.1-3.5,2.6-5.8,6.1-5.6
	c3.3,0.2,5.1,2.6,5.1,6.6c0,48.4,0,96.8,0,145.2v3.4H272V11.4h-72.7c0,1.3,0,2.4,0,3.5c0,19,0,38,0,57c0,4.2-2.4,6.6-6.2,6.3
	c-3.1-0.3-5-2.6-5-6.1c0-19.1,0-38.2,0-57.3c0-1.1,0-2.2,0-3.4h-70.3C121.7,24.2,117.2,33.2,104.9,38.8L104.9,38.8z M66.3,152.4
	h67.1c0.1-1.3,0.1-2.4,0.2-3.4c0-4.9,0-9.8,0-14.6c0-13.5,0-26.9,0-40.4c0-2.8,0.7-5.2,3.6-6.3c2.8-1.1,5.2-0.2,7.1,2.1
	c1.1,1.3,2.3,2.5,3.2,3.5c5.4-5.4,10.6-10.6,15.9-15.9c-5.3-6.2-10.6-12.7-16.3-18.8c-6-6.5-13.9-8.2-22.4-7.3
	c-2.5,15.8-10.9,24.4-24.5,24.9c-5.7,0.2-10.9-1.5-15.5-4.9c-6.6-5-9.7-11.8-10.2-20c-8.2-0.7-15.7,0.5-21.4,6.3
	c-6.2,6.4-11.8,13.4-17.3,19.7c5.5,5.5,10.7,10.8,16.3,16.4c1.3-1.4,2.7-3,4.1-4.5c1.8-1.8,4-2.3,6.3-1.4c2.3,0.8,3.4,2.7,3.6,5.1
	c0.1,1,0.1,2,0.1,3c0,17.6,0,35.2,0,52.8C66.3,149.8,66.3,151,66.3,152.4L66.3,152.4z M187.9,195H11.4v32.6h176.5V195z M187.9,239.3
	H11.4v32.6h176.5V239.3L187.9,239.3z M112.7,51.2H86.5c-0.4,7.2,5.6,13.4,12.9,13.4C107,64.7,113.1,58.6,112.7,51.2z"/>
<path class="st0" d="M225.9,141.9c0,0.9,0,1.8,0,2.8c-0.1,3.2-2.5,5.5-5.7,5.4c-3.1,0-5.4-2.2-5.5-5.3c-0.1-2-0.1-4.1,0-6.1
	c0.1-3.2,2.5-5.5,5.7-5.4c3.1,0,5.4,2.2,5.6,5.3C225.9,139.6,225.9,140.8,225.9,141.9L225.9,141.9z"/>
<path class="st0" d="M193.8,103c-3.3,0-5.7-2.4-5.7-5.7c0-3.2,2.3-5.6,5.5-5.6c3.3,0,5.8,2.4,5.7,5.7
	C199.3,100.6,196.9,103,193.8,103L193.8,103z"/>
<path class="st0" d="M99.5,217c-1,0-2,0-3,0c-3.1-0.2-5.3-2.5-5.3-5.6c0-3.2,2.2-5.6,5.4-5.7c2-0.1,4.1-0.1,6.1,0
	c3.1,0.1,5.3,2.4,5.3,5.5c0,3.2-2.2,5.6-5.4,5.7C101.6,217,100.6,217,99.5,217L99.5,217z"/>
<path class="st0" d="M99.9,250c0.9,0,1.8,0,2.8,0c3.1,0.1,5.3,2.4,5.4,5.5c0.1,3.2-2.1,5.6-5.4,5.7c-2.1,0.1-4.2,0.1-6.3,0
	c-3-0.2-5.1-2.6-5.1-5.8c0.1-3,2.2-5.3,5.1-5.5C97.5,249.9,98.7,250,99.9,250L99.9,250z"/>
</svg>
